<svg version="1.1" viewBox="0 0 512.13 512.13" width="36px" height="36px">
    <path d="M256.065,0C114.43,0,0,114.298,0,256.065S114.298,512.13,256.065,512.13S512.13,397.832,512.13,256.065
			S397.702,0,256.065,0z M256.065,477.892c-122.891,0-221.828-98.937-221.828-221.828S133.175,34.236,256.065,34.236
			s221.828,98.937,221.828,221.828S378.956,477.892,256.065,477.892z"/>
    <path d="M378.956,180.952c-6.769-6.771-17.054-6.771-23.953-0.001L223.651,312.304l-66.523-66.522
			c-6.769-6.769-17.054-6.769-23.953,0c-6.769,6.769-6.769,17.053,0,23.953l78.498,78.498c3.385,3.385,6.769,5.077,11.977,5.077
			c5.077,0,8.592-1.692,11.977-5.077l143.329-143.328C385.725,198.136,385.725,187.853,378.956,180.952z"/>
</svg>
