<svg version="1.1" viewBox="0 0 640 640" width="36" height="36">
    <defs>
        <path d="M509.41 150.87C507.48 150.55 484.81 147.33 455.48 143.78C432.92 82.87 413.59 52.79 377.17 52.79C355.26 52.79 339.14 63.75 328.83 74.38C318.52 63.75 302.41 52.79 280.49 52.79C244.08 52.79 224.74 82.87 201.86 143.78C172.53 147.33 151.26 150.55 149.33 150.87C140.31 152.16 134.18 160.22 135.79 168.92C136.76 177.62 144.82 183.74 153.84 182.46C157.1 182.46 258.8 166.66 328.83 166.66C397.26 166.66 501.66 182.46 504.9 182.46C513.6 184.07 521.65 177.94 522.94 168.92C524.56 160.22 518.43 152.16 509.41 150.87Z" id="b1UX5lds4R"></path>
        <path d="M212.66 411.67C206.9 411.67 203.7 411.67 203.06 411.67C158.63 411.67 118.98 452.97 108.19 512.14C107.3 517.18 100.17 557.5 99.28 562.54C98.07 569.14 99.16 576.14 102.21 581.49C105.26 586.87 109.95 590 114.91 590C121.43 590 154.01 590 212.66 590L212.66 411.67Z" id="b11Uo5dlrg"></path>
        <path d="M409.4 412.23C401.91 463.04 367.74 501.4 328.83 501.4C289.93 501.4 255.75 463.04 248.27 412.23C248.27 424.22 248.27 484.16 248.27 592.05L409.4 592.05C409.4 496.15 409.4 436.2 409.4 412.23Z" id="bubhfRKst"></path>
        <path d="M280.49 384.34C280.49 434.68 302.13 475.48 328.83 475.48C355.53 475.48 377.17 434.68 377.17 384.34C377.17 379.62 377.17 341.88 377.17 337.16C361.98 347.38 345.86 353.96 328.83 353.96C311.8 353.96 295.69 347.38 280.49 337.16C280.49 346.6 280.49 379.62 280.49 384.34Z" id="bEXATyk1w"></path>
        <path d="M441.63 170.15C406.64 165.69 362.42 161.07 328.83 161.07C295.23 161.07 251.03 165.68 216.04 170.15C216.04 176.7 216.04 209.43 216.04 268.34C217.29 268.34 217.98 268.34 218.12 268.34C235.38 267.89 250.06 260.26 265.59 252.18C283.23 242.99 303.21 232.59 328.83 232.59C354.45 232.59 374.43 242.99 392.07 252.16C407.81 260.35 422.68 268.1 440.68 268.34C440.74 268.34 441.06 268.34 441.63 268.34C441.63 215.97 441.63 183.24 441.63 170.15Z" id="e5EsBUvU88"></path>
        <path d="M380.73 245.31C363.96 236.34 348.12 227.88 328.82 227.88C309.51 227.88 293.67 236.36 276.9 245.33C259.74 254.51 240.24 264.65 216.04 266.04C230.54 321.74 275.26 362.63 328.82 362.63C382.41 362.63 427.16 321.68 441.63 265.92C417.32 264.49 397.86 254.47 380.73 245.31Z" id="b10rCsj9We"></path>
        <path d="M409.4 592.05C401.91 541.24 367.74 502.88 328.83 502.88C289.93 502.88 255.75 541.24 248.27 592.05C248.27 580.06 248.27 520.12 248.27 412.23L409.4 412.23C409.4 508.13 409.4 568.07 409.4 592.05Z" id="ajiglPKAn"></path>
        <path d="M444.73 411.67C450.49 411.67 453.69 411.67 454.33 411.67C498.77 411.67 538.41 452.97 549.21 512.14C550.1 517.18 557.22 557.5 558.11 562.54C559.32 569.14 558.24 576.14 555.19 581.49C552.13 586.87 547.44 590 542.49 590C535.97 590 503.39 590 444.73 590L444.73 411.67Z" id="a1kSkao77N"></path>
    </defs>
    <g>
        <g>
            <g>
                <use xlink:href="#b1UX5lds4R"></use>
                <g>
                    <use xlink:href="#b1UX5lds4R"></use>
                </g>
            </g>
            <g>
                <use xlink:href="#b11Uo5dlrg"></use>
                <g>
                    <use xlink:href="#b11Uo5dlrg"></use>
                </g>
            </g>
            <g>
                <use xlink:href="#bubhfRKst"></use>
                <g>
                    <use xlink:href="#bubhfRKst"></use>
                </g>
            </g>
            <g>
                <use xlink:href="#bEXATyk1w"></use>
                <g>
                    <use xlink:href="#bEXATyk1w"></use>
                </g>
            </g>
            <g>
                <use xlink:href="#e5EsBUvU88"></use>
                <g>
                    <use xlink:href="#e5EsBUvU88"></use>
                </g>
            </g>
            <g>
                <use xlink:href="#b10rCsj9We"></use>
                <g>
                    <use xlink:href="#b10rCsj9We"></use>
                </g>
            </g>
            <g>
                <use xlink:href="#ajiglPKAn"></use>
                <g>
                    <use xlink:href="#ajiglPKAn"></use>
                </g>
            </g>
            <g>
                <use xlink:href="#a1kSkao77N"></use>
                <g>
                    <use xlink:href="#a1kSkao77N"></use>
                </g>
            </g>
        </g>
    </g>
</svg>