<svg version="1.1" viewBox="0 0 36 36" width="36px" height="36px" fill="#505050">
    <path d="M32.68 7.87C33.27 7.87 33.75 8.35 33.75 8.94C33.75 9.53 33.75 10.22 33.75 10.81C33.75 11.4 33.27 11.87 32.68 11.87C29.7 11.87 21.8 11.87 18.82 11.87C18.23 11.87 17.75 11.4 17.75 10.81C17.75 10.22 17.75 9.53 17.75 8.94C17.75 8.35 18.23 7.87 18.82 7.87C21.8 7.87 29.7 7.87 32.68 7.87Z"></path>
    <path d="M26.72 24.75C26.18 24.75 25.75 25.18 25.75 25.72C25.75 26.33 25.75 27.17 25.75 27.78C25.75 28.32 26.18 28.75 26.72 28.75C28.13 28.75 31.37 28.75 32.78 28.75C33.32 28.75 33.75 28.32 33.75 27.78C33.75 27.17 33.75 26.33 33.75 25.72C33.75 25.18 33.32 24.75 32.78 24.75C31.37 24.75 28.13 24.75 26.72 24.75Z"></path>

    <path class="first head" d="M13.69 3.75C14.79 3.75 15.69 4.65 15.69 5.75C15.69 7.75 15.69 11.75 15.69 13.75C15.69 14.85 14.79 15.75 13.69 15.75C13.29 15.75 14.09 15.75 13.69 15.75C12.58 15.75 11.69 14.85 11.69 13.75C11.69 11.75 11.69 7.75 11.69 5.75C11.69 4.65 12.58 3.75 13.69 3.75C14.09 3.75 13.29 3.75 13.69 3.75Z"></path>
    <path class="first handle" d="M12.65 7.87C13.19 7.87 13.63 8.31 13.63 8.85C13.63 9.45 13.63 10.3 13.63 10.9C13.63 11.44 13.19 11.87 12.65 11.87C11.25 11.87 8 11.87 6.6 11.87C6.06 11.87 5.63 11.44 5.63 10.9C5.63 10.3 5.63 9.45 5.63 8.85C5.63 8.31 6.06 7.87 6.6 7.87C8 7.87 11.25 7.87 12.65 7.87Z"></path>
    <path class="second head" d="M25.69 20.63C24.58 20.63 23.69 21.52 23.69 22.63C23.69 24.63 23.69 28.63 23.69 30.63C23.69 31.73 24.58 32.63 25.69 32.63C26.09 32.63 25.29 32.63 25.69 32.63C26.79 32.63 27.69 31.73 27.69 30.63C27.69 28.63 27.69 24.63 27.69 22.63C27.69 21.52 26.79 20.63 25.69 20.63C25.29 20.63 26.09 20.63 25.69 20.63Z"></path>
    <path class="second handle" d="M6.69 24.75C6.1 24.75 5.63 25.23 5.63 25.82C5.63 26.4 5.63 27.1 5.63 27.68C5.63 28.27 6.1 28.75 6.69 28.75C9.68 28.75 17.57 28.75 20.56 28.75C21.15 28.75 21.63 28.27 21.63 27.68C21.63 27.1 21.63 26.4 21.63 25.82C21.63 25.23 21.15 24.75 20.56 24.75C17.57 24.75 9.68 24.75 6.69 24.75Z"></path>
</svg>