<svg viewBox="0 0 512 512" width="32px" height="32px">
    <path d="m448 64h-21.332031v-42.667969c0-11.773437-9.558594-21.332031-21.335938-21.332031h-21.332031c-11.777344 0-21.332031 9.558594-21.332031 21.332031v42.667969h-213.335938v-42.667969c0-11.773437-9.554687-21.332031-21.332031-21.332031h-21.332031c-11.777344 0-21.335938 9.558594-21.335938 21.332031v42.667969h-21.332031c-35.285156 0-64 28.714844-64 64v320c0 35.285156 28.714844 64 64 64h384c35.285156 0 64-28.714844 64-64v-320c0-35.285156-28.714844-64-64-64zm21.332031 384c0 11.753906-9.578125 21.332031-21.332031 21.332031h-384c-11.753906 0-21.332031-9.578125-21.332031-21.332031v-233.8125h426.664062zm0 0"/>
</svg>