<svg viewBox="0 0 512 512" width="36px" height="36px">
    <path d="M316,271v241h120c24.814,0,46-20.186,46-45V271H316z"/>
    <path d="M30,271v196c0,24.814,20.186,45,45,45h121V271H30z"/>
    <path d="M467,120h-61.383C415.135,107.426,421,91.948,421,75c0-41.353-33.647-75-75-75c-52.343,0-67.498,37.705-90,94.803
        C233.498,37.705,218.343,0,166,0c-41.353,0-75,33.647-75,75c0,16.948,5.865,32.426,15.383,45H45c-24.814,0-45,20.186-45,45v31
        c0,24.814,20.186,45,45,45h151V120h-30c-24.814,0-45-20.186-45-45c0-24.814,20.186-45,45-45c30.747,0,39.492,18.442,62.476,76.758
        c1.602,4.072,3.6,8.903,5.327,13.242H226c0,223.682,0,168.219,0,392h60c0-351.116,0-294.48,0-392h-7.802
        c1.727-4.34,3.724-9.17,5.327-13.242C306.508,48.442,315.253,30,346,30c24.814,0,45,20.186,45,45c0,24.814-20.186,45-45,45h-30
        v121h151c24.814,0,45-20.186,45-45v-31C512,140.186,491.814,120,467,120z"/>
</svg>
